<svg xmlns="http://www.w3.org/2000/svg" viewBox="0 0 180.14 209.03"><g id="Layer_2" data-name="Layer 2"><g id="Layer_1-2" data-name="Layer 1"><path d="M111.21,197.28l-4.07-4.9q-7.24-8.82-14.5-17.65c-4.21-5.14-8.39-10.3-12.59-15.44-1.59-2-3.2-3.9-4.78-5.87-.5-.63-.83-.78-1.27.06a10.27,10.27,0,0,1-1.07,1.41c-.45-.52-1.25-1-1.27-1.56a7,7,0,0,1,.79-2.39,3.75,3.75,0,0,1,1,.55c1.18,1.24,1.16,1.26,2-.22,3.23-6,6.43-12,9.69-18,3.73-6.83,7.53-13.62,11.26-20.45,3.64-6.68,7.24-13.38,10.86-20.07q4.38-8.1,8.79-16.18a4.78,4.78,0,0,1,.66-.77c1.29,1.83,2.55,3.55,3.75,5.3,3.89,5.7,7.75,11.43,11.63,17.14q5.53,8.12,11.1,16.21,5.76,8.42,11.54,16.82c2.35,3.42,4.72,6.81,7,10.26a1.91,1.91,0,0,1,.08,1.65c-2.3,4.31-4.66,8.58-7,12.86q-4.86,8.85-9.72,17.7a32.39,32.39,0,0,0-1.65,3.21,8.15,8.15,0,0,1-3.84,3.87c-6.55,3.77-13.05,7.62-19.58,11.43C117.15,193.91,114.26,195.53,111.21,197.28Z"/><path d="M86.85,31.86,84.92,29.3c-13.56,29-27,57.65-40.53,86.49-3.26-4-6.43-7.78-9.57-11.62Q27.16,94.82,19.5,85.46l-14.77-18C3.47,65.9,2.23,64.36.94,62.87A3.5,3.5,0,0,1,0,60.39c0-2.4.09-4.8,0-7.19A2.18,2.18,0,0,1,1.26,51q11-6.37,22-12.72L41.31,27.76,61,16.26c3.23-1.89,6.44-3.81,9.67-5.68.55-.32,1-.5,1.57.31C76.35,17,80.55,23,84.9,29.31c.42-.72.74-1.35,1.14-1.93.14-.2.51-.42.69-.36.63.21,1.33,2.22,1,2.85Z"/><path d="M163.81,139.11,118.23,72.65c-.42.62-.77,1.07-1,1.56-.4.75-.6.89-1.32.14-1.45-1.49-.45-2.61.38-4l2,2.32,23.53-43.18c1.6.92,3.14,1.79,4.65,2.68l20.71,12.13c4,2.36,8.08,4.74,12.15,7a1.48,1.48,0,0,1,.82,1.54c0,2.32,0,4.64,0,7,0,15.39,0,30.77,0,46.15a13,13,0,0,1-1.69,6.66c-3,5.44-6,10.94-9,16.42q-2.49,4.56-5,9.13C164.29,138.48,164.09,138.71,163.81,139.11Z"/><path d="M86.85,32.27c1.3,1.87,2.5,3.57,3.67,5.28q5,7.17,9.86,14.36c2.88,4.2,5.73,8.41,8.61,12.61,1.63,2.39,3.26,4.77,5,7.11a2.24,2.24,0,0,1,0,2.7q-4.47,8.07-8.88,16.16-5.32,9.77-10.61,19.57L84,129.34,73.47,148.68c-.77,1.41-.91,1.42-1.89.22q-5-6-10-12.1Q54.4,128,47.18,119.27a1.46,1.46,0,0,1-.27-1.8c2.78-5.88,5.46-11.8,8.23-17.68,3.09-6.58,6.27-13.12,9.36-19.7,2.91-6.21,5.72-12.46,8.62-18.68,3.2-6.84,6.47-13.65,9.69-20.48C84.12,38.16,85.41,35.37,86.85,32.27Z"/><path d="M.43,66.88c1.44,1.76,2.88,3.53,4.32,5.28q8.39,10.2,16.78,20.38c3.55,4.33,7,8.71,10.6,13q4.89,6,9.84,11.85c1.17,1.4,1.33,1.34,2-.3.09-.21.16-.43.37-1.05.69,1,1.53,1.62,1.64,2.41s-.53,1.59-.94,2.61l-1.87-2.38c-.73,1.46-1.4,2.75-2,4.07q-4.24,9-8.47,18C30.32,145.88,28,151,25.59,156c-1.83,3.93-3.7,7.84-5.51,11.78-.32.68-.64.69-1.19.36q-9-5.22-18-10.42A1.85,1.85,0,0,1,0,155.88q0-24.75,0-49.5V67Z"/><path d="M22.32,170c1.15-2.51,2.31-5,3.47-7.54,1.78-3.85,3.55-7.69,5.35-11.53q2.53-5.46,5.12-10.89c1.76-3.73,3.54-7.43,5.3-11.16,1-2.15,2-4.32,3-6.49.36-.78.69-.86,1.26-.16,3,3.68,6.07,7.34,9.1,11l10.8,13.15L71,153l-6.7,12.33-5.66,10.38c-2,3.64-4,7.26-5.94,10.9-.38.73-.69.92-1.46.46-4.62-2.73-9.28-5.4-13.91-8.1l-14.66-8.59A3.45,3.45,0,0,1,22.32,170Z"/><path d="M116.26,69.69c-2.69-3.94-5.22-7.69-7.79-11.4-2.76-4-5.57-8-8.34-12s-5.37-7.8-8-11.71c-1-1.52-2-3.08-3.1-4.56a1.84,1.84,0,0,1-.1-2.1q4.86-10.4,9.67-20.79c.32-.68.72-1.32,1.15-2.13,1.36.76,2.66,1.47,3.94,2.22Q115.49,14.09,127.32,21c3.63,2.13,7.24,4.31,10.88,6.43.75.43.87.74.41,1.57-3.47,6.28-6.87,12.6-10.3,18.91q-5.57,10.23-11.15,20.45C116.93,68.76,116.64,69.13,116.26,69.69Z"/><path d="M73.18,155.57l35.42,43.18c-1,.66-2.07,1.34-3.13,1.95q-6.73,3.92-13.49,7.8a3.78,3.78,0,0,1-3.88,0q-7.63-4.35-15.22-8.76c-5.69-3.32-11.36-6.68-17-10-.7-.41-1-.73-.46-1.65,2.79-5,5.47-10,8.18-15q4.55-8.35,9.07-16.73A9.21,9.21,0,0,1,73.18,155.57Z"/><path d="M180,116.54c0,.41.11.81.11,1.22q0,19.11,0,38.21a2.69,2.69,0,0,1-2.48,2.41,1.55,1.55,0,0,1-1-.63q-5.19-7.56-10.27-15.18a1.58,1.58,0,0,1,0-1.36c3.34-6.22,6.72-12.42,10.09-18.63,1.1-2,2.22-4,3.34-6.07Z"/><path d="M147.52,175.7c.58-1.11,1.13-2.23,1.73-3.32q5.33-9.78,10.67-19.54c1.28-2.34,2.57-4.69,3.88-7,.38-.67.49-1.24-.12-1.82a3.54,3.54,0,0,1-.34-.49,2.51,2.51,0,0,1,.3-3.4.6.6,0,0,1,.53-.12,2.76,2.76,0,0,1,1,2.86c-.19.35-.57.66-.6,1a3.34,3.34,0,0,0,.18,2c2.64,4,5.39,7.91,8.1,11.85.55.79,1.09,1.6,1.78,2.61L147.78,176Z"/><path d="M86.32,26.08,76.68,12c-.61-.88-1.21-1.77-1.85-2.63-.43-.57-.43-1,.24-1.33C79.53,5.47,84,2.81,88.47.34A4.07,4.07,0,0,1,91.54.26,33,33,0,0,1,96.44,3a1.16,1.16,0,0,1,.26,1.1Q91.93,14.49,87.06,24.8C86.87,25.21,86.61,25.59,86.32,26.08Z"/></g></g></svg>